<svg id="Capa_1" data-name="Capa 1" xmlns="http://www.w3.org/2000/svg" xmlns:xlink="http://www.w3.org/1999/xlink" viewBox="0 0 5617.99 3375.76"><defs><style>.cls-1,.cls-2,.cls-3,.cls-4{fill:none;}.cls-2,.cls-3,.cls-4,.cls-5,.cls-6,.cls-7{stroke:#fff;stroke-linecap:round;stroke-linejoin:round;}.cls-2,.cls-5{stroke-width:1.46px;}.cls-3,.cls-6{stroke-width:0.76px;}.cls-4,.cls-7{stroke-width:0.93px;}.cls-5,.cls-6,.cls-7{fill:url(#Unnamed_Pattern);}.cls-8{fill:url(#Nueva_muestra_de_motivo_3);}</style><pattern id="Unnamed_Pattern" data-name="Unnamed Pattern" width="178.37" height="220.31" patternUnits="userSpaceOnUse" viewBox="0 0 178.37 220.31"><rect class="cls-1" width="178.37" height="220.31"/><g id="SVGRepo_iconCarrier" data-name="SVGRepo iconCarrier"><path class="cls-2" d="M110.41,101.68h67.23L118.72,160.6l58.92,59H110.4l-59-59,59-58.89ZM110.4.85h67.1L34.47,143.9.73,110.16,110.28.73Z"/></g></pattern><pattern id="Nueva_muestra_de_motivo_3" data-name="Nueva muestra de motivo 3" x="5099.82" y="2764.71" width="414.06" height="424.55" patternUnits="userSpaceOnUse" viewBox="0 0 414.06 424.55"><rect class="cls-1" width="414.06" height="424.55"/><g id="SVGRepo_iconCarrier-5" data-name="SVGRepo iconCarrier"><path class="cls-2" d="M321.12,292l64.64,18.48-72.84,40.45,40.44,72.9-64.65-18.48L248.2,332.4,321.11,292Zm27.7-97,64.51,18.44L236.5,311.71,213.33,270l135.41-75.1Z"/></g><g id="SVGRepo_iconCarrier-6" data-name="SVGRepo iconCarrier"><path class="cls-3" d="M343.39,62.83l32.25-9.1L356.18,92.88l37.08,23.24L361,125.23,323.89,102l19.5-39.15ZM328.32,9.47,360.5.38,313.28,95.46,292.05,82.17,328.24,9.42Z"/></g><g id="SVGRepo_iconCarrier-7" data-name="SVGRepo iconCarrier"><path class="cls-3" d="M71.8,357,50.61,383l-6.53-43.23L.38,342l21.19-26,43.73-2.27L71.8,357Zm43,35.05L93.62,418,77.74,313l25-1.3,12.1,80.35Z"/></g><g id="SVGRepo_iconCarrier-8" data-name="SVGRepo iconCarrier"><path class="cls-4" d="M78.43,83.87,57.62,46.4,108.7,61,123.34,9.89l20.81,37.49L129.53,98.53,78.44,83.87ZM22.23,115.1,1.45,77.69l124,35.44-8.37,29.26L22.19,115.2Z"/></g></pattern></defs><g id="SVGRepo_iconCarrier-9" data-name="SVGRepo iconCarrier"><path class="cls-5" d="M425.22,478.5,352.3,518.9l40.52,72.94,64.64,18.48L417,537.42,489.86,497l-64.63-18.48Zm27.63-97.11L317.44,456.5l23.17,41.71L517.44,400l-64.51-18.44Z" transform="translate(5099.82 2764.71)"/></g><g id="SVGRepo_iconCarrier-10" data-name="SVGRepo iconCarrier"><path class="cls-6" d="M447.5,249.34,428,288.5l37.11,23.23,32.25-9.11-37.07-23.23,19.46-39.16-32.25,9.1Zm-15.15-53.42-36.19,72.76L417.38,282l47.23-95.08L432.43,196Z" transform="translate(5099.82 2764.71)"/></g><g id="SVGRepo_iconCarrier-11" data-name="SVGRepo iconCarrier"><path class="cls-6" d="M175.9,543.51l-6.5-43.26-43.72,2.27-21.19,26,43.69-2.25,6.54,43.24,21.18-26Zm43.06,35-12.11-80.35-25,1.3,15.88,105,21.14-25.91Z" transform="translate(5099.82 2764.71)"/></g><g id="SVGRepo_iconCarrier-12" data-name="SVGRepo iconCarrier"><path class="cls-7" d="M182.55,270.37,233.64,285l14.62-51.15L227.44,196.4l-14.63,51.1-51.09-14.6,20.82,37.47ZM126.3,301.7l94.92,27.19,8.36-29.25-124-35.44,20.77,37.4Z" transform="translate(5099.82 2764.71)"/></g><rect class="cls-8" width="3983.29" height="2178.77"/></svg>